<?xml version="1.0" encoding="iso-8859-1"?>
<!-- Uploaded to: SVG Repo, www.svgrepo.com, Generator: SVG Repo Mixer Tools -->
<svg height="800px" width="800px" version="1.1" id="Layer_1" xmlns="http://www.w3.org/2000/svg" xmlns:xlink="http://www.w3.org/1999/xlink" 
	 viewBox="0 0 392.404 392.404" xml:space="preserve">
<g>
	<path style="fill:#56ACE0;" d="M181.075,52.04c21.527,0,42.02,4.784,60.444,13.317l-13.511-43.572h-93.737L120.76,65.358
		C138.99,56.824,159.483,52.04,181.075,52.04z"/>
	<path style="fill:#56ACE0;" d="M181.075,340.364c-21.527,0-42.02-4.784-60.444-13.317l13.511,43.572h93.737l13.511-43.572
		C223.095,335.58,202.602,340.364,181.075,340.364z"/>
</g>
<path style="fill:#FFFFFF;" d="M181.075,73.826c-67.491,0-122.376,54.95-122.376,122.376s54.949,122.376,122.376,122.376
	s122.376-54.949,122.376-122.376S248.566,73.826,181.075,73.826z"/>
<path style="fill:#194F82;" d="M344.63,164.073c-6.012,0-10.925,4.848-10.925,10.925v10.343h-8.857
	c-3.168-41.632-24.048-78.416-55.143-102.788L246.432,7.628C244.945,3.038,240.808,0,236.024,0H126.19
	c-4.784,0-8.986,3.103-10.408,7.628L92.509,82.554c-33.875,26.376-55.661,67.491-55.661,113.649s21.786,87.273,55.661,113.648
	l23.273,74.925c1.422,4.59,5.624,7.628,10.408,7.628h109.834c4.784,0,8.986-3.103,10.408-7.628l23.273-74.925
	c31.16-24.372,51.976-61.091,55.143-102.788h8.857v10.343c0,6.012,4.848,10.925,10.925,10.925c6.012,0,10.925-4.848,10.925-10.925
	v-42.473C355.556,168.921,350.642,164.073,344.63,164.073z M134.206,370.683l-13.511-43.572
	c18.36,8.469,38.853,13.317,60.444,13.317s42.02-4.784,60.444-13.317l-13.511,43.572H134.206z M181.075,318.578
	c-67.491,0-122.376-54.949-122.376-122.376S113.648,73.826,181.075,73.826s122.376,54.95,122.376,122.376
	S248.566,318.578,181.075,318.578z M227.943,21.721l13.511,43.572c-18.36-8.469-38.853-13.317-60.444-13.317
	s-42.02,4.784-60.444,13.317l13.511-43.572C134.141,21.721,227.943,21.721,227.943,21.721z"/>
<path style="fill:#FFC10D;" d="M232.081,182.109c-1.164-4.267-2.844-8.339-5.042-12.154c-2.392-4.267-1.681-9.632,1.745-13.123
	l10.02-10.02l-8.469-8.469l-10.02,10.02c-3.491,3.491-8.792,4.202-13.123,1.745c-3.814-2.133-7.822-3.879-12.154-5.042
	c-4.719-1.293-8.016-5.624-8.016-10.537v-14.158h-12.024v14.222c0,4.913-3.297,9.18-8.016,10.537
	c-4.267,1.164-8.339,2.844-12.154,5.042c-4.267,2.457-9.632,1.681-13.123-1.745l-10.02-10.02l-8.469,8.469l10.02,10.02
	c3.491,3.491,4.202,8.792,1.745,13.123c-2.133,3.814-3.879,7.822-5.042,12.154c-1.293,4.719-5.56,8.016-10.537,8.016H105.18v12.024
	h14.222c4.913,0,9.18,3.297,10.537,8.016c1.164,4.267,2.844,8.339,5.042,12.154c2.392,4.267,1.681,9.632-1.745,13.123l-10.02,10.02
	l8.469,8.469l10.02-10.02c3.491-3.491,8.857-4.202,13.123-1.745c3.814,2.133,7.822,3.814,12.154,5.042
	c4.719,1.293,8.016,5.624,8.016,10.537v14.093h12.024v-14.222c0-4.913,3.232-9.18,8.016-10.537
	c4.267-1.164,8.339-2.844,12.154-5.042c4.267-2.457,9.632-1.681,13.123,1.745l10.02,10.02l8.469-8.469l-10.02-10.02
	c-3.491-3.491-4.202-8.792-1.745-13.123c2.133-3.814,3.879-7.887,5.042-12.154c1.293-4.719,5.56-8.016,10.537-8.016h14.222v-12.024
	h-14.222C237.64,190.19,233.374,186.958,232.081,182.109z M181.075,230.659c-19.006,0-34.457-15.451-34.457-34.457
	s15.451-34.457,34.457-34.457s34.457,15.451,34.457,34.457S200.081,230.659,181.075,230.659z"/>
<g>
	<path style="fill:#194F82;" d="M267.701,168.404h-17.325c-0.259-0.517-0.388-1.034-0.646-1.552l12.218-12.218
		c4.267-4.267,4.267-11.119,0-15.451L237.964,115.2c-4.267-4.267-11.119-4.267-15.451,0l-12.218,12.218
		c-0.517-0.259-1.034-0.453-1.552-0.646v-17.325c0-6.012-4.848-10.925-10.925-10.925h-33.875c-6.012,0-10.925,4.848-10.925,10.925
		v17.325c-0.517,0.259-1.034,0.388-1.552,0.646L139.249,115.2c-4.267-4.267-11.119-4.267-15.451,0l-23.984,23.984
		c-4.267,4.267-4.267,11.119,0,15.451l12.218,12.218c-0.259,0.517-0.453,1.034-0.646,1.552H94.061
		c-6.012,0-10.925,4.848-10.925,10.925v33.875c0,6.012,4.848,10.925,10.925,10.925h17.325c0.259,0.517,0.388,1.034,0.646,1.551
		l-12.218,12.218c-4.267,4.267-4.267,11.119,0,15.451l23.984,23.984c4.267,4.267,11.119,4.267,15.451,0l12.218-12.218
		c0.517,0.259,1.034,0.453,1.552,0.646v17.325c0,6.012,4.848,10.925,10.925,10.925h33.875c6.012,0,10.925-4.848,10.925-10.925
		v-17.325c0.517-0.259,1.034-0.388,1.552-0.646l12.218,12.218c4.267,4.267,11.119,4.267,15.451,0l23.984-23.984
		c4.267-4.267,4.267-11.119,0-15.451l-12.218-12.218c0.259-0.517,0.453-1.034,0.646-1.552h17.325
		c6.012,0,10.925-4.848,10.925-10.925v-33.875C278.562,173.253,273.713,168.404,267.701,168.404z M256.776,202.214h-14.222
		c-4.913,0-9.18,3.297-10.537,8.016c-1.164,4.267-2.844,8.339-5.042,12.154c-2.392,4.267-1.681,9.632,1.745,13.123l10.02,10.02
		l-8.469,8.469l-9.956-9.956c-3.491-3.491-8.792-4.202-13.123-1.745c-3.814,2.133-7.822,3.814-12.154,5.042
		c-4.719,1.293-8.016,5.624-8.016,10.537v14.158h-12.024V257.81c0-4.913-3.232-9.18-8.016-10.537
		c-4.267-1.164-8.339-2.844-12.154-5.042c-4.267-2.457-9.632-1.681-13.123,1.745l-10.02,10.02l-8.469-8.469l10.02-10.02
		c3.491-3.491,4.202-8.792,1.745-13.123c-2.133-3.814-3.879-7.887-5.042-12.154c-1.293-4.719-5.56-8.016-10.537-8.016H105.18V190.19
		h14.222c4.913,0,9.18-3.297,10.537-8.016c1.164-4.267,2.844-8.339,5.042-12.154c2.392-4.267,1.681-9.632-1.745-13.123l-10.02-10.02
		l8.469-8.469l10.02,10.02c3.491,3.491,8.857,4.202,13.123,1.745c3.814-2.133,7.822-3.879,12.154-5.042
		c4.719-1.293,8.016-5.624,8.016-10.537v-14.093h12.024v14.222c0,4.913,3.297,9.18,8.016,10.537
		c4.267,1.164,8.339,2.844,12.154,5.042c4.267,2.457,9.632,1.681,13.123-1.745l10.02-10.02l8.469,8.469l-10.02,10.02
		c-3.491,3.491-4.202,8.792-1.745,13.123c2.133,3.814,3.879,7.822,5.042,12.154c1.293,4.719,5.56,8.016,10.537,8.016h14.222v11.895
		H256.776z"/>
	<path style="fill:#194F82;" d="M181.075,161.745c-19.006,0-34.457,15.451-34.457,34.457s15.451,34.457,34.457,34.457
		s34.457-15.451,34.457-34.457S200.081,161.745,181.075,161.745z M181.075,208.873c-6.982,0-12.671-5.689-12.671-12.671
		c0-6.982,5.689-12.671,12.671-12.671s12.671,5.689,12.671,12.671C193.745,203.184,188.057,208.873,181.075,208.873z"/>
</g>
</svg>